<?xml version="1.0" encoding="utf-8"?>
<!-- Generator: Adobe Illustrator 26.3.1, SVG Export Plug-In . SVG Version: 6.00 Build 0)  -->
<svg version="1.1" id="Layer_1" xmlns="http://www.w3.org/2000/svg" xmlns:xlink="http://www.w3.org/1999/xlink" x="0px" y="0px"
	 viewBox="0 0 1500 398.74" style="enable-background:new 0 0 1500 398.74;" xml:space="preserve">
<style type="text/css">
	.st0{fill:#f1f5f9;}
</style>
<g>
	<path class="st0" d="M208.63,183.13l15.72,28.22l-25.48,46.04l-1.34,2.42h-31.35l3.85-6.96L208.63,183.13z M302.39,259.8h-31.35
		l-1.34-2.42l-23.46-42.4l-11.5-20.76l-0.46-0.83l-15.72-28.22l0.05-0.09l1.25-2.27l10.23-18.48l1.2-2.6h6l1.16,2.59l10.24,18.49
		l49.84,90.04L302.39,259.8z"/>
	<path class="st0" d="M457.21,142.16v24.99h-41.33v0h-24.99v0h-39.66v-24.99H457.21z M390.89,259.8v-75.23h24.99v75.23H390.89z"/>
	<path class="st0" d="M640.71,201.18c0,32.33-26.3,58.63-58.63,58.63c-32.33,0-58.63-26.3-58.63-58.63
		c0-32.33,26.3-58.63,58.63-58.63C614.41,142.55,640.71,168.85,640.71,201.18z M582.09,167.02c-18.83,0-34.16,15.32-34.16,34.16
		s15.32,34.16,34.16,34.16c18.83,0,34.16-15.32,34.16-34.16C616.24,182.34,600.92,167.02,582.09,167.02z"/>
	<path class="st0" d="M823.73,141.3V259.8h-24.99v-63.63l-13.26,13.26l-5.11,5.1l-1.38,1.37l-4.57,4.57l-3.31,3.31l-16.82-16.82
		l-11.54-11.54l-24.99-24.99V141.3h6.22l23.77,23.77l23.37,23.37l47.14-47.15H823.73z M717.76,195.06L742.75,220v39.8h-24.99V195.06
		z"/>
	<path class="st0" d="M925.84,141.92V259.8h-24.99V141.92H925.84z"/>
	<path class="st0" d="M1119.89,212.89l-1.99,6.13c-3.82,11.76-11.12,21.88-21.11,29.27c-10.21,7.53-22.32,11.52-35.04,11.52
		c-14.25,0-28.02-5.15-38.75-14.5c-10.63-9.26-17.61-22-19.64-35.87c-0.42-2.84-0.63-5.75-0.63-8.65c0-2.8,0.2-5.6,0.59-8.3
		c1.96-13.96,8.91-26.78,19.56-36.11c10.76-9.42,24.56-14.61,38.88-14.61c13.05,0,25.42,4.18,35.78,12.07
		c10.02,7.64,17.45,18.49,20.92,30.53l1.73,5.99h-25.89l-1.21-2.85c-5.37-12.6-17.67-20.75-31.33-20.75
		c-16.15,0-30.18,11.49-33.37,27.31c-0.44,2.19-0.67,4.46-0.67,6.73c0,2.35,0.24,4.71,0.72,7c3.29,15.66,17.3,27.03,33.31,27.03
		c12.98,0,25.01-7.57,30.67-19.28l1.28-2.64H1119.89z"/>
	<path class="st0" d="M1239.65,183.13l15.72,28.22l-25.48,46.04l-1.34,2.42h-31.35l3.85-6.96L1239.65,183.13z M1333.41,259.8h-31.35
		l-1.34-2.42l-23.46-42.4l-11.5-20.76l-0.46-0.83l-15.72-28.22l0.05-0.09l1.25-2.27l10.23-18.48l1.2-2.6h6l1.16,2.59l10.24,18.49
		l49.84,90.04L1333.41,259.8z"/>
</g>
</svg>
